<svg xmlns="http://www.w3.org/2000/svg" viewBox="0 0 998 331.34"><defs><style>.cls-1{fill-rule:evenodd;}</style></defs><title>logo</title><g id="Camada_2" data-name="Camada 2"><g id="Camada_1-2" data-name="Camada 1"><path d="M399.15,302.08V29.26H429.3V271.93H522.2v30.15Z"/><path d="M576.26,30V302.08H546.11V30Z"/><path d="M631.48,30V302.08H601.33V30Z"/><path d="M777.87,29.26H808V302.08H656.54V29.26h32l89.36,190.35Zm-8.36,242.66L686.69,96.47V271.93Z"/><path d="M980.93,29.63,897,150.59,998,302.08H833.08V29.63h30.51V145.51L943.87,29.63ZM940.61,271.56l-77-115.88V271.56Z"/><path class="cls-1" d="M106.3,319.86a167.65,167.65,0,0,1-60.68-41c0-.41,0-.7-.13-.86l-.46.23a167.75,167.75,0,0,1-28.51-41.65h.28l-.41-.25A167.5,167.5,0,0,1,133.56,0a208.9,208.9,0,0,1,34.67,20.28,114.41,114.41,0,0,1,24,9.32L175.34,66.95c-1.32-.57-2-.32-3.27,4.12-.74-.08-1.3.17-1.4,1.35,0,.46-.46.86-.92,1.28-3.67-1.64-8.36-8.22-8.36-12.08,0-5.37,10.52-4.91,10.08-10.26-.23-2.81,2.52-13.93,2.52-15.68,0-3.57-.65-7.32-3.36-9.75-3.55-3.18-9.72-4.34-14.11-2-7.2,3.85-8,8.55-12.71,13.75-1.94,2.14-2.73,7.37-2.43,10.89-.55,0-.59-.47-1.27-.3-.15.94.84.9,1.29.52.15,1.51.51,2.67,1.08,3.07,2.29,1.61.11,3.5-.72,3.47-6.16-.24-2.61,10.64-6.33,7.91-.58-.43-18.55,7.8-20.27,8.91-3.69,2.38-7.87,10.23-7.43,13.79,0,1.54-.9,6.62-.9,6.66.21,4.94-1.26,12.85-2.71,20.61-.28-.24-.58-.81-.77-.17.33.08.41.42.7.53-1.07,5.69-2.11,11.28-2.46,15.53-.16,2-3,15.92-2.83,16.25,2.16,4.23,2.7,23.62,3.92,24.5,2.3,1.67,2.16,4,4,3.95,3.07-.13.36,2,2,2,7.22-.28,2,2.44,4.68,5.22,0,1.08.15,8.57-.09,8.94-3.35,5-2.79,11.78-2.79,18,0,6.57,2.72,13,2.07,15.25-3.1,10.67-2.43,12.75-2.43,23.86,0,.87-.16,3.55-.59,4.09-1.33,1.69-1,9.79-.54,18.14-.5-.27-1.2-.88-1.19.28.31-.12,1,.2,1.2-.08.48,9,1.06,18.16-.19,20-3.6,5.38,5.14,4.12.59,8-3,2.53-2.09,7.29.3,9.41,1.74,1.55,1.08,4.77.08,5.88a12.43,12.43,0,0,0-3.43,7.08m59,11.48a167.61,167.61,0,0,1-39.9-5.29,17.92,17.92,0,0,0-.56-4.08c2-3-1.46-15.74,1.29-19.58,4.7-6.58-2.47-13.29,0-18.41,2.44-3.92,2-30.15,3.33-32,6.57-9.22,5.23-14.61,7.56-20.26,3.4-8.24-.54-13.69,9.27-19.81,4.35,4.08,6.95,20.32,8.44,37l-.12,0c-.19.69-.25,2,.25,1.57,0-.3-.4-.56-.06-.76,1.34,15.23,1.76,30.64,1.76,37.18-.9,1.4-2,4.84-.12,6.42.11.1,2.53,4.09.35,5.53-2.48,1.63,5.76,6.76-.42,10.5-.56.34-3,11.92-1.42,13,1.19.82-5.12,7.87,8.64,8.85C164,331.17,164.61,331.25,165.29,331.34ZM1.84,141.08c.24,0,.29.21.49.27-.14-.7,1-1.34.24-1.84,0,1.94-.29-.8-.74.25a1.21,1.21,0,0,1,.49,1.06C2,140.76,1.83,140.41,1.84,141.08Zm5.89,10.75c0-.83,0-1.59.49-1.84,1.16-.23.68.65,1,.79.22-.77.9-.08,1-.53-.63.13-2-1.11-3.18-.26C7.93,149.71,7.14,152.61,7.73,151.83Zm2.7-.05a1,1,0,0,1-.26-.74,3.6,3.6,0,0,1,.26.74c.2.24.45.35.48.05-.51.22.36-1.34-.25-.53-.07.42-.35,0-.24-.52C9.24,151.68,10.67,152.93,10.43,151.78Zm0,1.89c.07-1,.85.29.73-.79-1,.51-1.63-.62-1.71-1.84-.47-.06-.54.3-1,.26,0-.35.46-1.45,0-.78-.37.14-.37,2.81,0,2.1,0-.39-.09-1,.24-1.05C9,153,10.39,152.58,10.43,153.67Zm5.39,9.44c.79.64-1.06,2.1.49,2.09C16,164.33,16.48,162.82,15.82,163.11ZM21,159.17c.82-1.51.91,1.12,1.71,1-.79-.83.73-.1.49-1-.67-.19-.49.52-1,.52-.23-.48.73-.87,0-1-.22.77-.37-.62-1-.27C21.34,158.77,20.26,159,21,159.17Zm4.41,57.43a.67.67,0,0,1,.73-.52.73.73,0,0,0,.49.79c.28-.91-1.73-1.58-1.23-1.05.65.31-.64.68-.73,1.05.64.43.82-.18,1.47.26C26.33,215.9,25.31,217.31,25.38,216.61Zm3.93-71.07c.59.11.53-.48,1.22-.26a1.19,1.19,0,0,0-.49-1.05C30.27,145,28.61,145.93,29.31,145.53Zm3.19-20.19c0-1.44-1.76-1.25-2-.78.46,0,.52.2.24.52.76.19.48-.72,1.23-.52C31.64,124.94,31.81,125.39,32.49,125.34Zm0-1.31c-.07-.51.33-.52.49-.78-.62,0-.77.5-1-.27.19-.06.48,0,.5-.26-1,.26-1.09-.15-.5.78-.29,0-.55.47-.73,0,.38-.1,0-.31-.24,0,.18-.86-.49-.4-.5,0a.68.68,0,0,1,.74.52C32.1,124,32,123.17,32.49,124Zm1-30.42c-.3,1.2.82.72,1,.27a1.06,1.06,0,0,0-.73.26.73.73,0,0,0-.5-.79C32.45,95,33,96.23,33.47,93.61Zm6.38-13.89c0,.41.71.18.24,0-.46,0-1.41-.58-1.71.26.19.06.48,0,.49.26-.14,0-.28.21,0,.26C39.48,79.44,39.88,81,39.85,79.72Zm1,9.44c.12-.18,1.87-.07.74-.79.51-.87.92,1,1.22.26-.15,0-.29,0-.24-.26s.36-.41,0-.52a.25.25,0,0,1-.49,0c.05-.3.27-.41.49-.52,0,.15.19.3.24,0-.62-.09-1.51.1-2,0C41.29,87.77,40.65,88.7,40.83,89.16ZM44,233.38c-1.28.33-.39.64.24,0-.45-.48.22-1.84-.24-1.31-.05.31-.28.16-.49,0C43.34,232.88,44.2,232.58,44,233.38Zm-.5,42.49c.88-.22.93-.3,1.23-1-.27-.18.05-.87-.73-1-.46.9-.13,1.24.24.27a2.3,2.3,0,0,1-.49,1.57c.21-.91-.38-.9-.74-.53,0-.34,0-1.9-.25-1,.49.9-.84,1.15-.24,1.31C43.11,274.7,43.09,275.64,43.52,275.87Zm4.17-88.38c-.62-.35.59-.92.49-1.57-.44-.1-.83-.42-1.22,0C48.69,185.69,46.31,188.23,47.69,187.49Zm6.38-3.67c.91.38,1.22.83,2,1.83a17,17,0,0,1-.25-1.83C54.88,184.33,54.56,183.2,54.07,183.82Zm2.7,7.35c.53-.55-.22-.86.25-1.31a1.29,1.29,0,0,0-1,.26C56,190.77,56.4,190.94,56.76,191.17ZM57,80.5c-.76-.26.52-.43.48-.78-.67-.19-.49.52-1,.52-.06-.49-1.73-1.37-1.23-.78,1.29.29-.61.87,0,1,.36-.06.42-.43.74-.52.1.45-.37.67,0,.79C56.19,80.24,56.84,81,57,80.5ZM58.72,209c.14,0,.27-.21,0-.26,0,.16,0,.31-.24.26,0-.17,0-.31-.25-.26-.1.28-.3.62,0,.26.5.17.16,1.22.73,1.31C59.57,209.7,58.6,209.82,58.72,209Zm.73,16.78c.52.8-.54-.16,0,1.31-.31,0-.34.33-.73.27a.72.72,0,0,0-.49-.79,1,1,0,0,0,1,1c.48-.85.6-1.3,1-1,0-.34-.32-.37-.24-.79.13,0,.28-.21,0-.26C59.89,226,59.55,225.37,59.45,225.78ZM60.68,279c-.81.44-.83-.17-1.71-.26C59.15,280.26,61.42,278.74,60.68,279Zm0,10a1.16,1.16,0,0,0,.49,1c0-.3.27-.41.49-.53,0,.28.11.66.24.26-.36-.38-.44-1.1-1-1.3-.1.45.37.67,0,.78C60.92,289.08,60.89,288.93,60.68,289Zm.49-151.58c.06-1.17.17-.83.73-1-.42-.1.05-.33,0-.79-.29,0-.55-.47-.73,0,.3,0,.58.08.49.52-.63-.69-.35.51-1,.53-.64-.25.76-1.54,0-1-.73.73-.57.75-.24,1.31C60.68,136.07,60.84,137.45,61.18,137.41ZM62.4,275.61c-.67.11-.23-1-.73-1.05.06,1.46-1.39-.32-1.23.26s.82.53,1.47.53C61.84,275.77,62.24,276.05,62.4,275.61Zm2.94-50.09c0,.92-.81-.56-.73.26a1.71,1.71,0,0,1,.73.52,1.1,1.1,0,0,0-.73.27c-.13-.1-.36-1.28-.49-.53,1.2,1.22,0,.53.24,1.32,0-.32.27-.17.48,0,.47-.46-.43-.92.74-.79C65.55,226.18,65.67,225.6,65.34,225.52Zm-.49-50.36a.73.73,0,0,1,.49-.78c.06-.49-.27-.58-.24-1,.19-.06.49,0,.49-.26a1.91,1.91,0,0,1-1.72,0c0,.76.71.33,1.23,1C64.7,174,64.28,175.1,64.85,175.17Zm1.23,104.9c.61-.33.76.13,1-.27-.32,0-.31-.72,0-.78-.22.54.64,1.18.73.52-.46-.06.14-.42-.24-.52-.9.68.06-1.11-.24-1.06-.6.49-.48,1.45-1.23.54-.19.8.84.31.48,1.3C66.38,279.86,66.08,279.81,66.08,280.07ZM67.79,51.91c-1.48-2.25-1.35-2.33-1-4.72-.81-.43-1.59-.16-1-1.31-.48.08-.49-.35-.74-.53.49,1.42-.18.92-.73.26C64,47.44,66,46.8,66.32,48c-.89,2.34.38,2.18,0,3.41C67.29,51,66.82,52.25,67.79,51.91ZM70,159.17c.15,0,.29,0,.24.26-.34.86-.31,1,.73,1.05-.11-.83.66-.7.74-1.31-.87,0,.52-.87-.24-.79-.22.29-.55.18-1,0v.53c0,.16,0,.31.25.26,0-.37.62-.28.49.26C70.89,159.5,69.66,158.66,70,159.17Zm5.39,141.61c.36-.05.9.09,1-.26-1.3.5-1-2.1-1.72-1.31A2.67,2.67,0,0,1,75.39,300.79Zm.49-20.72c0-.17,0-.31.24-.27,0,.15.2.3.25,0-.75-.63.28-.16.24-.52-.41.12,0-1,.24-1,0,.14.2.29.25,0-.33-.32-1.56-.19-1.22.26C76.87,277.87,75.38,279.7,75.88,280.07Zm2.94,5.5c0-.31-.27-.17-.49,0,.07-.51-.33-.51-.49-.78.15,0,.29,0,.25-.26-.82-.18-.4.54-.25.79-.14,0-.28.21,0,.26C77.92,285.25,79.35,286.17,78.82,285.57Zm1.47-.26c-.37,0-.91.1-1-.26,0-.16,0-.31.24-.26a.25.25,0,0,0,.49,0c-.48.08-.48-.35-.73-.53C78.63,285.08,79.62,286.14,80.3,285.31Zm0-66.87a.7.7,0,0,1-.46.51C80.25,219.17,80.53,219.27,80.3,218.44Zm-1.72.26c.33-.28.84,0,1.24.24,0-.3.3-.35.23-.76C79.4,218.18,78.61,218,78.58,218.7Zm1.23.26,0,0h0Zm-1-90.21c.08.62.85.49.74,1.31-.14,0-.28.21,0,.26.25-.52,1.08-.41,1-1.31-.7-.22-.64.36-1.23.27.51-1.73-.22-.7-.74-1.83.35-.07.29-.58.5-.79-.43-.06-.56-.45-.5-1-.86.28-1.23,1.36-2.2.79-.5.92.14,1.42-.49,2.09.42.11.62-.38.73,0a4.72,4.72,0,0,0-.73,1.84c.51-.7.69.72.73.79.28-.6,1,.37,1.23-.53-.29,0-.26-.41-.25-.79.31,0,.34-.34.73-.26A.73.73,0,0,1,78.82,128.75Zm.25,1.83c.06.34,1.38,1,1.22,0-1.16.6-1-.54-1.23-1a1.94,1.94,0,0,1-.5.78c-.5-.42.83-1.82-.24-.78-.63.74-.15.85,0,1.57.4-.82.77.54,1.23.52C79.89,130.9,78.26,131,79.07,130.59Zm.73-57.43c.05-.29.27-.41.48-.53-.47-.64-1.14-.19-1-1.31.07.52-.33.52-.49.79C79.4,72.19,79.37,72.92,79.81,73.16Zm.49-.53h0v0Zm.25.53a1.55,1.55,0,0,0-.25-.51C80.35,72.85,80.31,73.15,80.54,73.16Zm.73,144.23c.14,0,.28-.21,0-.26,0,.43-.68.15-.73.53C81.55,218.58,81.5,219.57,81.27,217.39Zm.25,21.5c-.06.21,0,.53-.25.53-.06-.37-.4-.44-.49-.78.5.3,1.17-.41.49-.52,0,.93-.81-.56-.73.26.16.25.23,1.27,1.23,1.31C81.73,239.37,81.81,238.94,81.52,238.89Zm.25-133.48a.68.68,0,0,0-.74.53c.86-.09,1.26,0,1.47-.26-1.18-.12-.51-2-1.23-1.57.56.46-.61,1.09-.73,1C80.91,105.87,81.54,104.69,81.77,105.41Zm1,26.22c.47.73.24,2.2,1,2.62.46-1.56-.22-5.31-2-3.15a4.49,4.49,0,0,1-.25-1.83C82.8,130,82,128.19,83,128c-.56.07-.92-.06-1-.52.29,0,.69,0,.73-.26h-1c-.42,1,.72,1.64.24,1.83s-.49-.35-.74-.53c.27,1-.61.75-.49,1.58a3.5,3.5,0,0,1,1,3.14C82.72,133.35,82,131.69,82.75,131.63ZM85,116.69c.09-.73-.84-1.7-1.23-1.05C85,115.57,83.65,116.76,85,116.69Zm.49-.26c0-.31.38-.29.74-.27-.08-1.69-1.33-.73-2-1.3a.68.68,0,0,0,.74-.53c-.63,0-.86.48-1.23.79C84.68,115.14,85,115.89,85.44,116.43Zm0-26.75c.29,0,.27.42.24.8-.13,0-.27.21,0,.26-.17-.71,1.16.19,1-.52a.69.69,0,0,1-.74-.53c.3,0,.7,0,.74-.26C86.31,89.56,85.41,89.11,85.44,89.67Zm1.23,196.69c0-.31.38-.29.73-.27,0,.15.2.31.25,0-.45-.55-.84-.75-.49-1.57-1.14,0-1.07,1.23-1.47,1.31.61.34,1-.77,1.23,0C86.52,285.76,86.25,286.19,86.67,286.36ZM87.9,114.59c.35-.77.54-.22,1.47-.51,0-.18,0-.35,0-.53s0-.31-.24-.27a1.32,1.32,0,0,1-.74.8c-.17-.94,0-1.16-.73-1.84a1.29,1.29,0,0,1-.25.79c1,0,.05.17,0,.53a.67.67,0,0,1,.74.53c-.42.1-.63-.39-.74,0C87.73,114.07,87.63,114.53,87.9,114.59Zm1.23-1.83c0,.5-.81.19-.74.79a1,1,0,0,0,1-1.05,1,1,0,0,0-1.22,0C88.56,113.6,88.63,112,89.12,112.76Zm-.25-34.09c0-.16,0-.31.24-.26,0,.14.2.3.24,0-.42,0,.5-1.59-.49-1.57,0,1-.74-.91-1.23,0,.15.44.74.42,1,.78-.56.6-1.43-.56-1,0,.54.29.21,1.36.49.79.3-.06.15-.29,0-.53.67.19.49-.52,1-.53C89.34,78,88.26,78.48,88.88,78.67Zm0,10.23c-.13,0-.28.21,0,.26.05-.5.4.14.49-.26-.76-.26.53-.43.49-.79-.34-.07-.28-.58-.49-.78.14,0,.28-.21,0-.27-.28,1.07-1.39-.56-1.71.27C88,87.87,88.54,88.3,88.88,88.89Zm-1,195.63c-.22.6-.31-1,0-1,.24.74,1.38.93,1.47,1.31-.22-.88.09-1.28-.49-2.1.62.32.61-.5,1.72,0,.38-.93-.84-.15-.74-.78,0-.36-.05-1-.24-.52s-.09,1.13-.73,1c.45-.46-.06-.81-.49-1-1,1,1.22,1.89.49,2.62-.15-.73-1-2-1.48-1.57.15.39,1.24,1.1.74,1.32-.43-.49-.67-1.22-1.23-1.58.08.82-.71-.67-.73.26.3,0,.57.08.49.53-.43-.8-.76.72-1,0,0-.34.32-.36.25-.78-.56-.08-.92.07-1,.52.4.46,2.25,1.68,2,.53.1.51-1.12.38-.73-.27.55.56,1.07-.34,1.47.53-.22.08-1.07.72-.49.79C87.08,284.1,88.4,286.23,87.9,284.52Zm1.47-51.66c.32,0,.22.46.49.52.41-.61,0,.1,0,.53h.74C91,232.88,89.48,232.52,89.37,232.86Zm1.23-1c-.22.72-.91-.51-1,.52.95-.23.87.64,1.47.79.07-.51-.33-.52-.49-.79S90.95,231.93,90.6,231.81Zm.49,12.32c-.78-2.7-.5-.7-1.47-1.31a1.52,1.52,0,0,1-.25,1c.19.06.49,0,.49.26-.14,0-.28.21,0,.26.28-.55-.11-1,.74-1.31-.08.3-.48,1.72,0,1C90.38,242.74,91.64,245.17,91.08,244.14Zm0-142.4c.06-.49.4.15.49-.26-.75-.3-.91-1.22-1.47-1,.1-1,2,.14,1.47-.53-1.26-.64-2.34.23-1.71,1.32-.12-.77.66-.4.74-.26-.29.09-.29,1.26,0,.52C90.71,101,90.85,101.59,91.08,101.74ZM93.78,65c.63-.53-.16.73-.5.79a1.4,1.4,0,0,0,2-.79c-1.33-.3.45-1.07,0-2.09-.72.4,0,.68-1.22.78,0,.88.79.9.73,1.84-.42-.11-.63.38-.73,0,.76-.38.15-.81-.25-1.31C93.88,64.69,93.41,64.91,93.78,65Zm-.49,211.63c.15,0,.35,0,.44.14C94,276.36,93.93,276.12,93.29,276.65ZM91.82,279a1.28,1.28,0,0,1-.49,1.31c0,.67.45.91.74,1.31-.85-1,1.34-1,.49-1.84-.08.31-.76,1.23-1,.53a2.68,2.68,0,0,1,1.72-.79c-.35-.06-.41-.42-.73-.52-.05.29-.27.41-.49.52C92.56,279.31,92,278.39,91.82,279ZM93,276.65a1.16,1.16,0,0,0,.63.25c-.37.62-1.19,1.49-1.6,1.06a1.62,1.62,0,0,1,.25,1.06c.23-.45.76-.77,1.22-.26,0-.52-.67-.34-.49-1a.71.71,0,0,1,1.23.53c-1.34-.73.35,1.36-1.47.52a2.32,2.32,0,0,0,1,1c.18-1,1.18.37,1,1.58.24,0,.19-.32.25-.52.86,0-.52.86.24.78-.41.67-.66-1-1.47-.78-.09-.45.19-.49.49-.53-.24-.74-.65.38-1-.26.17.83,1.12,1.59,1,1.31.74.47-.69.8-.24,1.84-.63,0-.58-1-.25-1.31-.62,0-.77.4-1,.78-.43-.06-.56-.44-.48-1-1,1.24-.42-.77-1.48-1.31.17-.2,1-.83,0-.79.05-.35,1-.48,0-.52,0-.3.45-.22.73-.26-.27-.32-.21-.54.25-.52a1.32,1.32,0,0,1-.25-.8c-.63,0-.39,1-.73,1.32h-1c0-.31.45-.22.74-.26-.24-1-.69-.82-1.23-1.06-.26-1,.82-.51,1-1,.29,0,.21.48.25.79.51-.59,1.36.46,1.47-.79.48.44.31,0,1,0a7.51,7.51,0,0,1-.73,1.31C92.67,277.48,93.09,277.31,93,276.65Zm.69.14-.06.11.11,0A.18.18,0,0,0,93.73,276.79Zm2,.92c-.52-.13-1.31-1.11-1.7-1.65l.22.34c.16.73-.36,1.21.49,2.1.41-.83-.91-1.08-.25-1.31-.07.6.71.29.74.78-.14,0-.28.22,0,.28C95.25,277.89,95.68,278,95.74,277.71ZM94,276.05m2.18-36.64a12.79,12.79,0,0,0-1.22,1c.89.48,1-1.2,1.71-.52,0-.1-.89-2.66-1.47-1.31C96,238.4,96,239,96.23,239.41Zm-.48,44.85c0,.16,0,.31-.25.26.05.2,0,.52.25.52.36-.78.44.9,1,.79,0-.15,0-.31.24-.26,0,.37.05,1,.25.52-.11-.83-.34-1.28-.74-.52a1.26,1.26,0,0,0-.25-.78c.37,0,.91.1,1-.26C96.64,283.91,96.11,285.31,95.74,284.26Zm0-25.18c.06-.49.4.15.48-.26-.71-.59.41-.59.5,0-.22-.91-1.21-1.15-1-1.83-.06.49-.4-.14-.49.26C96.23,257.76,95.54,258.66,95.74,259.08Zm1.47,23.6c.92.18-.18.87.73,1.05,0-.21.81-.79.73-.26-.4.8-1.18,0-1.47.52.75.39.95-.08,1.47.26.05-.57.6-2,.24-2.1.06.46-1.62-.13-1,.26,0,.93.81-.55.73.26a.67.67,0,0,1-.73.53C98.16,282.67,97.31,282,97.21,282.69Zm2.45-12.85c.16,0,.29,0,.25.26-.19.06-.48,0-.49.26.77-.29,1.36.26,1.72-.79-.42.1-.63-.38-.74,0,.25,0,.31.46,0,.52C100.26,269.87,99.08,269.27,99.66,269.84Zm0-17.56c1.09-.65.88.58,1.23.26-.6-1.08.53-.49.49-1.58-.29,0-.55-.46-.73,0,.3,0,.58.08.49.52-.25,0-.3-.21-.49-.26C100.83,252.11,99.74,251.65,99.66,252.27Zm1.23,21.5c-.19-.05-.48,0-.49-.26.19-.05.49,0,.49-.26-.77-.3-.59.42-1,.52-.35-.29-.6-.28-.73.27C99.68,273.88,100.79,274.36,100.89,273.77Zm-2.7,3.15c-.44-.85,0-2.18,0-2.88-.78-.39-1.08-.35-2.7-.27.07,4.53-.82-1.66,0-2.62-.79-.23-.34.85-.73,1a1.78,1.78,0,0,1-1.72-.53c.72-.6-.22-1.46,1-1.31-.62-.21-.52-1.19-.49-2.1h1c0,.67,0,1.35-.73,1.31.54.65,1.33-.65,1.71-1-.1-.38-.31.1-.73,0,0-.47.3-.55.25-1,.22.63,1.24.41,1.47,1,.85-.68-1-.61-.5-1.83.34.51.5,1.22,1.23,1.31-.17.2-.38.71,0,.78-.16.79-.52-.26-1,0,.79.83,1,.72,1.48,1.84-.44,0-.52.32-1,.26a1,1,0,0,1,0-1.31c-.79-.53-.35,1.49-.74.52a10.1,10.1,0,0,0,.5,2.89c.8-.54-.18-1.36-.25-1.83.47.11,1.06.09,1,.78.45-.39.61-1.09,1.22-1.31.8-.07.52,1,1.22,1,0,.3-.24.15-.24,0-.21,0-.23.11-.24.26-.36-.06-.09-.78-.49-.78-.86,0-.77.93-1.23,1.31.41.17,1-.94,1.23.26.24,0,.19-.32.24-.53.24,0,.19.33.25.53.79.32.18-.85,1-.53-.29.35-.09.42,0,.79,1-.21,1.27-.27,2,.26s-.5-.13-1,0c-.18.8.42.78.24,1.57-.38-.67-1.31,1-2,0C99.12,276.06,98.39,275.4,98.19,276.92Zm4.17-7.35c-1.79.28-2.3,2-1,2.1C100.2,270.81,102,270.32,102.36,269.57Zm.25,1c-.65-.08-.81.36-.74,1,.29,0,.67,0,.73.25C102.88,271.57,103.16,271.13,102.61,270.62Zm0,1.31a1.89,1.89,0,0,0-1.45.53c.75-.34,1.25.89,1.47.26C102,272.56,102.29,272.3,102.58,271.94Zm0,0v0h0S102.6,271.93,102.6,271.92Zm0-92.81c.38-.93-.83-.16-.74-.79.61-.34,1.19.58,1.23,0-.32,0-.23-.46-.49-.53-.07.41-.54.18-.74,0C101.31,179.13,101.46,178.51,102.61,179.11Zm2.7,88.9c1.2.23-.82,1.23.49,1.57-.26-1,.92-.42.73-1.31C105.71,268.76,105.72,267.08,105.3,268ZM106,33.3c.27,1.05-.8,2,.25,2.36C105.89,35,107.13,34,106,33.3Zm1,253.59c.69.26-.35.7.25,1a2.38,2.38,0,0,0,1.47-.79.68.68,0,0,1-.73-.52c.13,0,.28-.22,0-.27C108.18,287.07,106.85,286.18,107,286.88Zm11-255.95c.31,0,.34-.34.73-.26-.05.33-.38.53.25.52a1.25,1.25,0,0,0-.25-.78c-.46-.06-.54.29-1,.26.16.62.33,1.22,1,1.3C119,31.14,118,31.62,118.05,30.94Zm7.84,1.31c-.27-.38-.26-.64.24-.79.28.5-.07,1.34.25.79.42-.1,0-.34,0-.79.14,0,.28-.22,0-.26-.1.65-.7-.26-.49-.78-1.07-.19.2.52-.49.52-.06-.29-.4-.63-.49-.26.46,0,.17.87.74.78,0-.14.19-.29.24,0-.35.59-.6-.33-.73.26.15,0,.29,0,.25.26-.26,0-.63.13-.25.27C125.67,31.41,125.65,33,125.9,32.24Zm5.4,228.15c.27-.4.79-.54.73-1.31C131.08,258.62,131.06,260.48,131.29,260.39Zm1,53.76c-.43-.52-1.91.05-1.47.78C131,314,131.76,315,132.27,314.16Zm.5,0c-.69-.58-1.11-1.44-2-1.84a2.4,2.4,0,0,0-.25,1.57C131.48,312.87,133,314.87,132.76,314.16Zm-.25,1.57c.5.07.23,1,.73,1.05.06-.37.41-.44.49-.79C133.19,316.19,133,314.79,132.52,315.73Zm-1.48,0c-.63-.86,1.51-1,2.21-1.31.59.77.73,1,1.16,1.63-.78.65.82.7.56,1.52-.28,0-.43.06-.49.27-.28,0-.13-.27,0-.27a.71.71,0,0,0-.49-.78c-.36.11.09.33,0,.78-1.1-.76,0,.51-1.23.27.29-.3.09-.67,0-.27,0-.65-.75-2,0-2.36-.08-.35-.62-.22-1-.26,0,.23.09.25.24.26-.11.39-.31-.1-.73,0,0,.22.09.25.24.26C131.45,315.88,131.11,315.24,131,315.73Zm3.68.78-.21-.31C134.53,316.37,134.56,316.52,134.72,316.52Zm-.24-.52-.07.05.1.16A1.19,1.19,0,0,0,134.48,316Zm2-58.75c.9.39,0,1.18.74,1.83a10.33,10.33,0,0,0,1.22-.52c-.55-.29-.44-1.29-1-1.58C137.35,257.91,136.51,256.33,136.44,257.25Zm1-15.21c-1.24-.6,1-.18,1-.52-.25,0-.5-1.13-.74-.26.14,0,.28.21,0,.26s-.26-.42-.25-.79c.61-.34.77.14,1-.26-.52-.58-.72.34-1.47.26.21.84-.21,1-.49,1.31C136.9,241.79,137.26,242.83,137.42,242Zm3.19,51.13c.33,0,.23.46.49.53.05-.32.27-.17.49,0,.6-.35-.45-.8.24-1.05.13.1.36,1.27.49.52a7.14,7.14,0,0,1-.73-1.31c.37.3,1,.92,1.23,0a1.11,1.11,0,0,0-.74.26v-.53c-.67.23-1.29-1.62-1-.78a1,1,0,0,0-.25,1.57c.68-.24-.48-1,.49-1,0,.75-.13,1.71.25,2.09C141.26,293.48,140.67,292.55,140.6,293.18Zm2.21,19.67c.87.14.6-.93,1.47-.79v-.78c-.59.56-2,0-1.47,1,0-.32.07-.62.49-.53C143.48,312.51,142.81,312.32,142.82,312.84Zm1.71-5.77c.63.2,1.13.39,1.47-.26-.56-.19-.73-.79-1-1.3.36.23,1.83.35,1.47,0-1.45-.09-1.79-.61-2.2.79.31.36,1.19.11,1.22.78C145.23,307,143.89,306.57,144.53,307.08Zm1.23-32.52c.22,2,.94.27,1.47,1.58.24-.42.66-.6,1-.26.21-.84-.81-.36-.73-1,.29,0,.56.47.73,0-.58-.16-1.14-.35-1.23-1,.35.11.42.32.74,0-.51.52.17.7.73.79.12-.82-.44-.93-.25-1.83-1.49.54-1.23-.79-2-1.06.22,1.26.84,3.46,1,3.94C146.87,275.11,146.68,274.45,145.76,274.56Zm8.33-22.29c-.41-.09.23-.81-.48-1.05-.32.65.13.82-.24,1.05,0-.34-.32-.37-.24-.8-.27-.67,1.52-.42.73-.78a2.4,2.4,0,0,0-1.47.78c1.5.08-1.15.34,0,.8C152.68,251.37,153.68,253.27,154.09,252.27ZM175.42,31.2c-.15,0-.29,0-.24-.26.81.19.38-.52,0-.52.06,1.52-.89.31-1.23,1.31.79-.23.51.68,1,.79C175.18,31.61,174.83,31.72,175.42,31.2Zm2.95,255.69c-.06.37-.4.44-.49.79.43-.08.76,1.24,1,.53-.24,0-.3-.46,0-.53.15.54.52,1.14.74.26a.68.68,0,0,1-.74-.52,1.13,1.13,0,0,1,.74.26c-.19-1.58-.68,0-1.47,0C179,287.23,178,286.33,178.36,286.88ZM183,192.22c0-.15-.19-.3-.25,0,.25,0,.31.46,0,.52-.46,0-.18-.86-.74-.78-.39.69-.18.91.25.26a1.28,1.28,0,0,0,.24.79c-.34,0-1,1-.49,1,.15-.36,1.32.1,1.47-.27-.33,0-.22-.46-.49-.52.07.45-1,.92-.73,0,.24,0,.29.21.49.26.05-.5,1-1.36.49-1.57C183.25,192.12,183.23,192.27,183,192.22Zm-.25,54.8c.86.05.77-.91,1.22-1.31-.42.1-.63-.39-.73,0,.6.2.05.78-.25.26C182.94,246.33,182.67,246.47,182.78,247ZM184,276.13c-.07.52.33.52.49.79-.28.1-.28,1.27,0,.52,1.24-.51.07-.45-.24-1.31.42.9,1.25-.13.74.26C184.48,276.24,184.5,275.6,184,276.13Zm1.23-8.65c0,.16,0,.31-.25.26,0-.15-.2-.29-.25,0,.32,0,.32.73,0,.78-.06-.21,0-.52-.24-.52.38,1.19-1.34.42-.73,1.31,0-.16,0-.31.24-.26.06.2,0,.52.25.52.1-.45-.36-.67,0-.79-.16.62,1.57,1.09,1,.53C184.1,269.52,186,267.71,185.23,267.48Zm-1.47-129.55c.06-.37.4-.45.49-.79a.62.62,0,0,0-.49,1.05c.75.19.47-.73,1.23-.52,0,.26.19.31.25.52-.31-.06-.51-.42-.5.26,1-.1.67-.9.5-1.58C184.34,136.81,184.56,137.92,183.76,137.93Zm2,142.14c-1,.32-.58-.17-.73.79-.22-.72-1.84-.44-1.23-.27,0,.32.27.17.49,0,.11.51.53.66.49,1.31-.13,0-.28.21,0,.26,0-.35,1.25-.53.5-.79-.13.75-.36-.43-.5-.52.43.49,1.84-.25,1.23,0C185.1,280.83,186.48,280,185.71,280.07Zm.74,27.79a1.13,1.13,0,0,0-2,.53C185.2,307.64,186,308.29,186.46,307.86Zm.24,11.28c0,.29-.36.4,0,.52.17-.25,1.15-1.53.49-1-.69.15,0-1.07-1.47-.79.09.61.26,1.12.74,1.31C186.45,319,186.65,318.84,186.7,319.14Zm-.24-132.7h1c0-.8-.86-.65-1.47-.79-.22,1.11,1.14,1.34.49,2.1C187.54,187.8,186.6,186.69,186.46,186.44ZM186,79.72c0,.26.2.31.24.52-.27.06-.58.43-.24.52.55.19,1.7-1,.74-.79.15,0,.29,0,.25.26-.25,0-.3.21-.49.26C186.49,80.15,186.07,79.06,186,79.72Zm2.94,233.92c0-.34.43-.24.49-.53-.64.07-1.06-.09-1-.78,1,.74.21-.75.74-.79-.55.23-1.56,0-1.23.53C188.79,311.44,187.83,313.37,188.9,313.63Zm-1-236.8a1.24,1.24,0,0,1,.73.78c-.79.53-.77-1-1-.26,0,.45.92,1.78.49,1.05.35-1,.64.56.73-.79,0,.41.72.18.25,0S188.29,76.12,187.92,76.83Zm2,198.51c.05-.21.21-.31.49-.27.12.51-.85,1.34-.25.79.25-.28,1.34-1,.74-1.31-.21,1.52-1.4-1.22-1-.26C190,274.81,189.35,276,189.88,275.35Zm-.24-32.78c.15,1,1-.29,1,1.05a1.09,1.09,0,0,1,.73.26c-.61-.89-.49-2-1.47-1C189.9,242.55,189.77,242.16,189.64,242.56Zm0-51.39c-.34-.18-.76-1.61-1.22-.8.7,0,.61.74,1,1.05.42.1.63-.39.73,0,0,.16,0,.31.25.26.12-.83-.85-.7-.25-1.31-.55.36-.92-.67-1,0C189.36,190.46,190.22,191.09,189.64,191.17Zm.24-1.31c.33.64.49.17.74.52.58.46-.27-.19-.49.26.08.35.62.22,1,.27,0,.3.05.47.24.52,0,.53-1.25-.76-.49.26-.5.35-1.55-.16-2.45.26q0-.39,0-.78c1,.66,0-.68-.25-1.05-.72.22.57.39.25,1.05-.24,0-.19.31-.25.52-1.57-.65.58-.67-.74-1.31C188.18,189.39,189.14,190.42,189.88,189.86Zm2,87.58c-1.15.78-1-.87-2-1,.07.51-.33.52-.49.79,1.09-.48,1,.18,1.23.78C190.7,277.58,191.65,278.25,191.85,277.44Zm0,17.57c.49,0,1.06,1.28,1.22.79s-.71-.29-.73-.79c.46-.06.54.3,1,.26C193.34,294.45,192,294.91,191.85,295Zm1.47-34.09a1.33,1.33,0,0,1,1,.26c.29-.69.3-.91.74-.26.13-.87.37-1.3,0-1.84.07.52-.34.52-.5.79.3,0,.59.08.5.52-.57-.58-.66-.23-1.23-.52C194.09,260.69,193.42,260.51,193.32,260.92Zm1-124.56c0-.27-.31-.2-.24.26.46.06.54-.3,1-.26,0,.15.2.29.24,0a1.3,1.3,0,0,1-.74-.79c.43-.1.63.39.74,0C194.27,134.83,194.58,136,194.3,136.36Zm2,95.19c-.13,0-.28.21,0,.27,0-.35.43-.24.49-.53-.89.25-.44-1.13-.24-1.31-.43-.18-.76-.29-1,0,1.08.38.07,1.18-.24,1.57C195.74,231.8,196.1,230.77,196.26,231.55Zm-.49,83.92c.23.16,1.43.35,1,0-.87-.08,1-.53,0-.79-.06.29-.28.4-.49.52C196.2,314.8,195.86,315.17,195.77,315.47ZM197,79.72c-.06.61-1.08.15-1.22,0-.14.23-.74,1.15-.25.52s1.12,1,1.72,0C196.72,80.47,197.6,78.9,197,79.72Zm2.21,59.52c-.46-1.33.18-.06.49-1-1-.07-1,.3-.74,1-.33-.64-.74.48-1-.26.14-.23.73-1.15.25-.52-.34,0-1,1-.5,1C198.06,139.14,198.74,139.66,199.2,139.24Zm1,170.2c-.28.47-1,2.35-.49,2.36V311c1,.65.3-.51.73-.79.06.37.4.44.5.79-1.29.84-.18.8.24-.27C200.48,310.68,200.6,309.77,200.18,309.44Zm-2-50.87c.05.2,0,.52.24.52-.32-1.25.25-1,.94-.94-.22-.94-.91-.4-1.43-.1-.07-.46,1.16-.81.49-1-.05.31-.27.16-.49,0a12.14,12.14,0,0,0-.49,4.72C198.16,261.13,197.17,258.75,198.22,258.56Zm2.58-1.39c-.46-.27-1.71.15-1.85.08.24.08.88.6.69.9a1.21,1.21,0,0,0,.54-.11C199.76,258.24,200.49,257.4,200.81,257.17Zm-1.16,1h-.24a1.21,1.21,0,0,1,0,.16A.34.34,0,0,0,199.65,258.15Zm1.16-1a.4.4,0,0,1,.11.08C201,257.08,200.93,257.09,200.81,257.17Zm.6,58.3c-.4.07-.66-.36-.25-.53,0,.14.2.3.25,0-.77.08.62-.76-.25-.78-.14.55-.61.75-.49,1.57C201,315.69,201.37,315.77,201.41,315.47Zm-1.23-.53c-.4-.07-.66.35-.24.53.73-.93,0-1.21,1-1.31-.56-.37-1.34-.23-.5-.79-.67,0-.5.45-1,0C199.43,314.17,200.33,314,200.18,314.94Zm-.27-11.51c.33.17.08,1,.51,1,0-1.08,1.33-.78,2-.52.09-.29.29-.63,0-.26C200.87,302.85,200.71,303.49,199.91,303.44Zm3,9.41c-.24-.28-1.34-1-1.72-.26C201.81,312.43,203.32,313.5,202.88,312.84Zm0-8.91c-.92.53-1.65.76-2.21.52.07.54.65.52,1,.79C201.65,304.57,203.65,303.74,202.88,303.93Zm-.74-124.3c.28.06.39.29.49.52-.35-.3-.6-.29-.74.26.29,0,.7,0,.74.26-.22.45-1.08-.19-.49.26,0,0,1.34.65.74.26s.57-1.38,0-1.57C203,180.27,201.53,178.76,202.14,179.63Zm-.49-11.28c.14,0,.28-.21,0-.26-.65.91,1,.85,1.23.53-1.14,0,.18-.48.25-.79-1.06.35-.78-.75-1.23-1,.07.42-.33.7-.49.26.14,0,.28-.21,0-.26-.71.79.76.73,1,1.31C202.13,168.06,201.89,169.22,201.65,168.35Zm1.72,136.1a2.41,2.41,0,0,0-1.47.79c.49,0,.31.72,1,.52.07-.52-.33-.52-.49-.78a1.29,1.29,0,0,1,1,.26Zm-2-7.87c-.18-.43,1.16-.43,1,0-.14,0-.28.22,0,.26,0-.32.26-.15.49,0C202.83,295.65,200.82,295.79,201.41,296.59Zm2-.26c-.42-.11.06-.34,0-.78-.83.07,0-1.24-.49-.53-.46.07.13.44-.24.53-.29-.16-.64-.13-1-.79,0,.35-.83,1-.24,1C201.78,294.39,203,297,203.37,296.32Zm2.46-43.79c-.43-1,1.31-.29,1.71-1.31-.35-.06-.41-.43-.73-.53.2,1.71-1.23.65-1.47,1.31C205.61,251.93,205.31,253.24,205.82,252.53Zm2.69-125.62c.07-.78-.89-1.81-1.22-1.31a2.34,2.34,0,0,1,1,1c-.33,0-.92-.88-1-.26C207.76,126.5,207.73,127.14,208.52,126.91Zm-3.18,186.45c.75-1,.78-.29,1-1.57.68.57,0,1,1,.26a1,1,0,0,0,0,1.31c-.81-.8-.81-.17,0,.27a.75.75,0,0,0,0-1c.77.3.6-.42,1-.53,0,.37.05,1,.24.53-.09-.46.36-.68,0-.79-.52.35-1.76.21-2.94-.26C205.3,312.37,205,312.87,205.33,313.37Zm2.45-7.07c.3,0,.15.29,0,.52.92.44,1.26-1.86.73-1.3C208.63,306.63,207.86,305.84,207.78,306.29Zm4.9-9.71c-1-.54.82-1.53,0-1.83-.25.35-.23,1-.74,1-.23-.49.73-.88,0-1,0,.32-.27.17-.49,0,0,.65.39.81.49,1.31-.35.58-.59-.33-.73.26.54.93.32,0,1-.26.1.45-.36.68,0,.79C212.3,296.88,213.28,296.25,212.68,296.59Zm.25-181.21c-.38-.07-.17-.58,0-.79-.51-.17-1.19-.46-1.72.27.78.19,1.2.38.49-.27C212.66,114.12,212.28,116.38,212.93,115.38Zm.49,191.18c.73-.82,0,.6.73.78.27-.82.12-.69-.24-1.31C213.41,305.73,212.74,306.44,213.42,306.56Zm.49-.53a.64.64,0,0,1,1,0c.28-.1.28-1.27,0-.52a9.32,9.32,0,0,1-2-.26C212.87,306.47,213.88,304.9,213.91,306Zm2.94-226.83c.32,0,.22.46.49.53-.07-.54.71,0,.73.26-.43.49-.76-.36-1,.52.43.18.76.29,1,0-.38-.06,0-.43.25-.52-.33-.62.12-.59-.49-1,.14,0,.28-.21,0-.26a.67.67,0,0,1-.73.52C217.1,79,216.9,78.89,216.86,79.19Zm1.72,1.31c-.22-.84.64-.54.73-1-.42.1-.62-.4-.73,0,.38.06,0,.43-.24.52C218.31,80.34,218.38,81,218.57,80.5ZM221,279c.92-.2.17,1.39,1.23,1.05,0-.49-.18-.56-.48-.27.21-.84-.39-.81-.49-1.3.27,0,.38-.39.49,0-.14,0-.28.21,0,.26.44-.68-.08-.82-.74-.52C221,278.5,221,278.76,221,279Zm1.23,19.67c-.25,0-.31-.46,0-.53-.32.73,1,.9.24.53-.12-1-1.25-.87-1-1.57-.06.49-.4-.14-.49.26.38.06.17.58,0,.78C221.82,297.77,221.72,299.63,222.24,298.68Zm.49-117c-.91-.35-2,.13-1.47,0,1.26.15-.28.61-.25,1.05A4.56,4.56,0,0,0,222.74,181.73ZM222,303.41c.26.18,0,.79.49,1.31-.24,0-.29.21-.49.27.09-1.32-1.05-.35-2-1.31.13,0,.28-.21,0-.26,0,.34-.43.24-.49.53.9.18,1.55.79,1.47,1.31-.07-.32.71-.9.74-.26.64-.08.18,1,1,.78v.79c-.65-.64-.83-.16-1.47-.79.08-.34.43-.41.49-.78-.88.18-.69,1.21-.74,1.31.36-.3.6-.28.74.26-1,0-.05.17,0,.52-.14,0-.28.21,0,.26.17-.28.73,0,1.22-.53.25-1.13-.51-1.2-.74-1.83,1.32-.36-.69-1.51.49-1.31-.15,0-.29,0-.25-.26.14,0,.28-.21,0-.26C222.43,303.64,222.09,303,222,303.41Zm.74-218.72c0,.15.19.3.24,0-.47-.56-.92-1-1-1.31-.11,0-1.08.61-.49.26a4.36,4.36,0,0,1,1,.79c-.24,0-.29.22-.49.26.13-.54-1-.55-.24-.26,0,.29.27.41.48.52C222.3,84.76,222.45,84.65,222.74,84.69Zm.73,10.75c.05-.2.21-.3.49-.26.11-.84-.66-2.07-1-1.58.28.4.71.65.73,1.32-.32,0-.22-.46-.49-.53,0,.33-.31.36-.24.79C223.23,95.19,223.27,95.4,223.47,95.45ZM223,275.87a1.55,1.55,0,0,0,.24,1.05c.56,0,1.43-.89,1-1.05C224.17,276.46,223.59,275.53,223,275.87Zm1.22-18.1c.28,0,.38.38.49,0-.3,0-.15-.29,0-.52-.28,0-.55-.46-.74,0,.19.06.48,0,.49.26-.74.33-1.25-.9-1.47-.26a2.8,2.8,0,0,1,0,1.57c.48.08.48-.35.73-.52,0,.14.2.3.25,0-.35-.1-.41-.32-.73,0,0-.42,0-.91.49-.79.06.81.68,1,1,1.57C225.05,258.1,224,258.59,224.21,257.77ZM224,172.29c-.05-.35-1.23-1.2-.73-.53.72.23.07,1,.49,1,.3-.79.94.18,1.23.26,0-.39.09-1-.24-1,0,.21,0,.52-.24.52.18-.72-.49-.52-.49-1,.29,0,.56.46.74,0-.46.06-.54-.3-1-.26C223.39,171.89,224.69,172.06,224,172.29Zm1.23-32.78c.07-.55.67.38.74-.52-.58-.07-.14-1.15,0-1.31-.43-.19-.76-.29-1,0C226.16,137.86,224.76,139.47,225.19,139.51Zm2,151c0,.16,0,.31-.25.26v.52c.19.06.48,0,.5.26-.38,0-.17.76,0,.26,0-1.05,1.45.62,1-.52,0,.16,0,.3-.25.26-.74-.46.67-.81,0-1-.24.27-.48.53-.73.79C226.85,291,227.7,290.71,227.15,290.56ZM228.38,80c.15,0,.29,0,.24-.26a5.06,5.06,0,0,0-2,.78c.85.05,1.16.37,1.72-.26C228.24,80.24,228.1,80,228.38,80Zm.49,4.2c.13-.55,1.16-.06.49-.79.19-.06.48,0,.49-.26-.49-.44-.31,0-1,0C229.2,83.72,228.23,84.11,228.87,84.17Zm1.71,126.14c-.57-.18-.66-.87-1.23-1.05,0,.35-.43.24-.49.53,1.23-.56.1.59,1,.53-.29,0-.15.29,0,.52A.68.68,0,0,0,230.58,210.31Zm1.72,85.49c-.33,1.07-1.28-.65-1.23,0,.2.67,1,.67,1.47,1.05C232.19,296.39,232.74,295.3,232.3,295.8Zm.74-10.49c.5.83.68.29,1-.26-.41.82.91,1.27.25.79v-1c-.78.62-1.24-.06-1.72.78.47,0,.17.87.74.79C233.6,285.71,232.31,285.54,233,285.31Zm1-1c.58-.07-.28-.7-.24-1,.22-.07,1.07-.71.49-.79-.66.43-.87,1.35-1.22,2.1-.28,0-.38-.38-.5,0C233.52,285,234,283.77,234,284.26Zm-.24-37c.68.34.84-1,.49-.27-1,.05-.59-.13-.25-.52-.61.33-.77-.13-1,.26.24.23-.59,1.24.49,1.58C234.58,247.56,234.51,248,233.77,247.29ZM235,173.59c-.39,1-.39.31,0,1.31-.14,0-.28.22,0,.26C235.43,174.73,235.68,174,235,173.59Zm.73,47.2c-.76-.43-1.18,1-.73.27.61.34,1-.77,1.23,0-.13,0-.28.21,0,.26,0-.34.31-.37.24-.79a.67.67,0,0,1-.74-.52c-.66,0-.49.43-1,0C234.69,221.24,235.7,219.67,235.73,220.8Zm1-65.57c-.13-.88-1.7-2.19-2.21-1C235.55,154.15,236,155.78,236.71,155.23ZM237.94,188c.54.42-.9.94-1.23,1.31-.22-.64,1.1-1.35,0-1.31,0,.31-.58,1.87.25,1.83C236.77,189.57,239.24,187.86,237.94,188Zm.49,126.92c-.84,1.44.8,0,.25-.26-1-.06-.48-.12-1.47.52-.06-.5.28-.59.24-1-.56-.08-.92.07-1,.53.3,0,.58.08.49.52-.13,0-.28.21,0,.26.14-.76.39.4.74.26C237.65,315.16,237.9,314.89,238.43,314.94Zm-1.22-11.8c.46-.47-.34-.82.49-1v1c.43-.15,1-.14,1.23-.53a1.09,1.09,0,0,1-.74-.26c-.05.2,0,.52-.24.53C238.29,300.79,235.92,302.87,237.2,303.15Zm1.47-110.67c.71.37-.43.9-.25,1.57.62.27,1.4-.55.74-.79,0,.32-.07.62-.49.52,0-.7.77-.57.73-1.31C239,192.58,238.78,192.09,238.67,192.48Zm2,102.53a1.17,1.17,0,0,0-.74.26c.07-.42-.32-.71-.49-.26.74,0,.24,1.32,1,1.31C240.27,295.5,241.24,295.63,240.64,295Zm.24-48c.24,0,.29-.2.49-.26.44.18.76.29,1,0-.89-.11-1.87-.71-1.72.79h1c.06.2,0,.52.24.52v-.78C241.5,247.24,241,247.38,240.88,247Zm-.24-143.7c.32,0,.22.46.49.52a1.24,1.24,0,0,0-.24-.78c.7-.06,1.47-1.38,1.23-1.58-.07.24-.67.24-.74,0,.23-.28.91-.09.74-.79-.19-.05-.48,0-.49-.26.13,0,.28-.21,0-.26-.25.81-.4-.57-.74-.52.27,1.39.53,1.17.49,2.88A1.33,1.33,0,0,0,240.64,103.31Zm-.25-79.2c.07-.53-.71.05-.74.26,1.43.14,1.66-1.35,2.7-.26.24-1-.71-.82-1.23-1.05A4.39,4.39,0,0,1,240.39,24.12ZM241.62,108c0,.34-.43.24-.5.52.92-.24,1.41,1.11,1.72,0C242.23,108.05,242,108.82,241.62,108Zm1.72,11.54c-.79.53-.77-1-1-.27.06.38.4.45.49.79-.43.06-1.23-.26-1,.53C242.9,120.86,243.09,120.19,243.33,119.58Zm-.24,187c.21.54-1.25.52-.5.78.78-.21.7-1.34,1.47-1.57,0,.15.2.3.25,0-.64-.3-.85-.32-.25-.78-.9.49-1.22-.8-1.71.53,1,.23-.3,1.65.24,1C242.87,306.58,243,306.17,243.09,306.56Zm-.49-162.07c.41,0,.18,1.86.74.78-.29,0-.27-.41-.24-.78.49-.55.86.19,1.22.53-.35-.47.2-1.56-.25-1.05-.05.68-.42-.36-1,0-.06.2,0,.52-.25.53C242.85,144.34,242.64,144.19,242.59,144.49Zm2,58.74c.48,0-.43,1,.49,1.05.25-.35.86-1.76,0-1.05C245.71,204,244.49,202.51,244.56,203.23Zm-.25-4.72a2.13,2.13,0,0,1,.49,1.85c.05-.21.21-.32.49-.27-.52-1.21-.35-1.17.24-2.1-.48-.08-.48.36-.73.52S244.42,198.13,244.31,198.51Zm.49,84.18c0-.14-.2-.29-.25,0,1.1-.06-.42,1.73.25,1.05.32,0,.22-.46.49-.53,0,.16,0,.31.24.26.08-.52-.33-.52-.49-.79.77.44,1.19-1,.73-.26a1.13,1.13,0,0,1-.73-.26C245,282.37,245,282.68,244.8,282.69Zm.49-83.38c.58.07.46.91,1.23.78-1-.18.47-1.79-.49-1.57.19.06.28.22.24.52C245.66,199.37,245.51,198.9,245.29,199.3Zm.49-129.82c.27,0,.63-.12.25-.26-2.16,1-.19,1.38.73.53C246.15,69.78,246,70.25,245.78,69.48Zm.5,209.54c-.66.84.59.92,0,1.84,1.12-.12,1.17.57,2,1.31-.62-1.1-.8-2.8-1.47-1.31C246.21,280.25,247.25,279.52,246.27,279Zm3.67-33.57c-.86.6-.8-.55-1.47,0a1.93,1.93,0,0,1,0,1.57c1.55.06-.25-1.17.49-1.57C248.92,246.23,250.12,246.06,249.95,245.45Zm1.72-91c-.07-.25-.66-.25-.73,0,1,0,.48,1.16.73,1.32,0-.16,0-.32.25-.27.16.61.32-.67,0-1.05.14,0,.28-.21,0-.26C251.9,154.35,251.87,154.5,251.66,154.45Zm-1,42.75c.19.05.29.22.25.53.61.34.77-1,1-.26.13.38-1,.64-.25.79.06-.49.41.15.49-.26-.59.11.77-1.75,0-1.05,0,.2-1,.2-1,0,1-.71,1.16-.49,0-.78C251.35,196.87,250.68,196.68,250.68,197.2Zm0,52.19c0-.32.08-.63.49-.53a1.3,1.3,0,0,1-.25.79c.31.37,1.2.12,1.22.79-1.78-.34-1.79.29,0,.27.75-.46-.67-.81,0-1.05.14.23,1.32.83.73.26-.71-.23-.07-1-.49-1,0,.36-1,1-1,.53a1.75,1.75,0,0,0,.74-.53c-.75.19-.89-.26-1.47-.26C250.65,248.91,250.25,249.19,250.68,249.38Zm1.47-35.67c.29.06.15.3,0,.52.19.07.48,0,.49.27-.19.06-.49,0-.49.26h.73c-.06-.86,1-.56,1-1.31a1.18,1.18,0,0,0-1.47-.27c.27.05.38.29.49.52C252.6,213.68,252.34,213.25,252.16,213.71Zm1-101.48c-.66.44.87,1.34-.24.79a1.63,1.63,0,0,0,.24,1.06c-.26,0-.62.12-.24.26.38-.41,1.37.37,1.71-.52-1.14-.06-.2-.74-1-1.05.46-.25.81.78,1,0-.18-.06-.48,0-.49-.27.14,0,.28-.21,0-.26C254.08,112.89,253.29,112.31,253.13,112.23Zm1.72-12.59c-.37.64-1.78-.31-1.23.26.06.49.4-.15.49.26,0,.17,0,.31-.24.26-.36-.07-1-1.12-1.23-.53a1.29,1.29,0,0,1,.74.79,1.27,1.27,0,0,0,1-.26c.49.6-.06.29-.24.79a1.13,1.13,0,0,1,.74.26c0-1,.38.09.73-.52,0,.3-.43.59,0,.78.34-.16,0-1,.49-1.05-.18.86.48.4.49,0-.67,0-.5-.43-1,0,0-.26-.2-.31-.24-.53.48-.3,1.26.07.73-.26C255.72,99.52,254.73,100.65,254.86,99.64Zm.24,90.21c-.07-.77-.34-1,0-1.31.64,1,.51.47.49,1.31.06-.32.27-.16.49,0,.06-1.13-1.39-2-1.72-1.83.82.16-.42,2.35.24,1.56,0-.15,0-.31.25-.26C254.91,189.53,254.86,189.85,255.1,189.86Zm1-1.57c-1.2-.25.53-.42.49.26.07-.61.52-1.13-.25-1.31-.07.54-.65.52-1,.79,0-.42,0-.91-.49-.79C254.67,188.06,255.81,188.81,256.08,188.29Zm.74-1.84a2.16,2.16,0,0,1-.24,2.63C257.59,188.81,257.84,186.8,256.82,186.44Zm2,66.35c.82.88-.64,1-.49,1.31.65-.35,1.9.14,1.47-.26-.27.13,0-2,.49-1.05.28-.93-.87-1.38-.24-.52a.69.69,0,0,1-.74-.53c-.86.08.87.71,0,.79-.49-.62-.06.47.25.52C259,253.18,258.25,252.15,258.77,252.79Zm-.24-1.57c0-.28-.12-.67-.25-.27-.1.72.91.25,1,.79a1.76,1.76,0,0,0,.74-.52C259.23,250.93,259.45,251.2,258.53,251.22Zm1.22-2.36c.15,0,.29,0,.25.26-.73.38-.92,1.65,0,1.83.13-.39.36-.66.49-1.05-1.06-.12-.32.7-.74.79a.87.87,0,0,1,.49-1.31C260,249.46,260.26,248.15,259.75,248.86Zm3.68-53a1.7,1.7,0,0,1,.24-1.83c-1,.24-.64,1.74-.74,2.09C263,196.18,264,195.54,263.44,195.88Zm-.49-92.83c.7-.76-.59-1.82-1-.79.41,0,.38,1.83.73,1-.14-.16-.57-1.25,0-1.31C262.74,102.39,262.61,103,262.94,103.06Zm5.15,54c-.41-.59-1.63-1-1.23-.53.78,0,.3.71,0,1.57.46,0,.52-.2.24-.52.29,0,.7,0,.74-.26C266.89,156.85,269,157.65,268.09,157.08Zm.74,85.48c0,.53-1,1.12-.49,1.31,0-.43,1.81,1.13,1.23,0,0,.16,0,.31-.25.26C269.37,243.39,269.26,242.81,268.83,242.56Zm.49,40.39c-.21-.54,1.25-.53.49-.78-.58.09-.55.81-1,1.05,0-.15-.2-.3-.25,0,.15,0,.29,0,.25.26s-.44.59,0,.79c.06-.2,0-.51.24-.52.06.2,0,.51.25.52a1.26,1.26,0,0,0-.25-.79c.78.12,1.69-.52.74-.79-.05.21,0,.52-.24.53S269.27,283.18,269.32,282.95Zm-3.43-138.46c.61,0,.76.4,1,.78-.15-.08-.94-.65-1,0a4.53,4.53,0,0,0,1.71.53c-.31.77.79,2.3.74,3.67-.19.06-.48,0-.49.26.72-.39.91.3,1.22-.52-.35-.11-.41-.32-.73,0,0-.83,0-1.58.49-1.84.23.5-.74.88,0,1.06.64-.94-.39-2,.24-2.89-1.11-.4.13,1.72-1,1.32.18-.8-.25-1-.25-1.58a.65.65,0,0,1,1,0c.06-.46-.69-1.31,0-1.57,0,.39-.09,1,.24,1,.13-.65,0-1.58.74-1.57-.15.55-1,1.67-.49,2.09.43-.41.32-1.4.73-1.84.19-.06.48,0,.49-.26a8.85,8.85,0,0,0-2.69-.79c.54-.81,2.45.71,2.45,0-.52-.89-.79-.1-1-1.83a12.12,12.12,0,0,0-2.7,1.57c.62,0,.6.59,1,.79-.77.1-1.25-1.45-1.71-.79.76-.08-.62.76.24.79-.07-.54.71,0,.74.26h-1C265.91,143.83,266.34,144,265.89,144.49Zm4.9,3.93h-1.23c-.05.2,0,.51-.25.52,0-.17,0-.35,0-.52.14-.55.38-.56.73-.26-.11-.49.33-1.58-.49-1.31.27,1.25-.76,1.1-.49,2.36C269.4,148.84,271.17,148.69,270.79,148.42ZM273,291.87c-.06.4-.4,0-.49-.26.28-.08,1.15-.81.49-1a1.29,1.29,0,0,1-.73.79c0-.41-.71-.19-.25,0,.15,0,.29,0,.25.26s-.32.37-.25.79C272.57,292.88,273.45,292.19,273,291.87Zm3.68-233.92c.49.06-1,1.39.25,1.58.27-.54.26-.56-.25-.26-.07-1.07.09-.59.74-.53-.31-.65.13-.82-.24-1C277.11,58.18,276.76,57.53,276.67,57.95Zm2.94,66.35c-.68.42-.68-1.13-.24-1,.15,0,.29,0,.24-.27-.91-.28-.48.88-1,1-.24,0-.29-.2-.49-.26-.17,1.18.41.61,1,.53C278.95,125.15,279.61,124.69,279.62,124.29Zm1,2.1c.47.11.44.74,1.23.52.54-.54-.22-.85.24-1.31-1-.27-2.63-1.37-1.22-1.31-.41,0-.15-.73-.5-.79-.45,1-.31.95-.25,2.36,1.14.24-.34-.68.49-.79,0,.92,1.08.59,1.23,1.32C281.21,126.73,280.8,125.62,280.59,126.4Zm1.47-2.63c0,.31.44.6,0,.79.07-1.23-.94.34-1-.79-.13-.38,1-.63.24-.78-.85.65-.09,1.79.49,2.36.29-.85.64,0,1-.78-.08.32,0,1.61.24.78C283.38,124.32,281.51,123.34,282.06,123.77Zm1.48-.78c-.79-.23-.34.86-1,.78-.23-.48.73-.88,0-1-.05.2,0,.52-.24.53-.06-.29-.4-.64-.5-.27.55.21.62.92,1,1.31.35-.25,1.89-.57,1.47-.79-.92-.28-.7.66-1.47.52C282.88,123.5,283.46,123.52,283.54,123Zm2.69-5.77c-.19.34-1,1.39-.49,1.57,0-.31.39-.29.74-.26C286.35,118.15,286.76,117.17,286.23,117.21Zm0,11c1-.2,1.28.12,1.72-.26-1.17.37.52-1.59-.24-.79-.13,1.24-1.74-.7-1.23,0-.08.6.71.29.74.79C286,128.12,285.45,126.9,286.23,128.23Zm2.21,83.4c1-.3,1.32,1.54,2.2.52-1.27.13-1.39-.48-.49-.79-.77.31-.59-.41-1-.52C289.7,211.78,287.51,211.1,288.44,211.62Zm1.47,35.66c.48.28.64.89,1,1.31.1-.45.32.06.74,0,0-1-1.37-.63-1.47-1.58.25,0,.29-.2.49-.26.1.38.3.45,0,.79h.49c0-.27.2-.31.24-.53-1.07.2.2-.51-.49-.52C290.73,246.79,290.08,246.45,289.91,247.29Zm-.25-116.44a1.87,1.87,0,0,1,.49-.79,1.82,1.82,0,0,0-.49-.79C290.25,129.82,289,131.23,289.67,130.85Zm2.21-.26c-.3.08-.85-.76-.25-.79.37.3.6.76,1.23.79,0-.35.43-.24.49-.52-.47-.5-.62,0-1.22,0,.14-.84-.46-.81,0-1.31-1.49-.37-.61,1.79-1.72,1.83.47-.67-.33-1.65.49-1-.23-1.48-1.14-.65-2-1.31a1.25,1.25,0,0,1-.24.78c.48.08.48-.35.73-.53.15.55.39.56.74.27-.32.65.72,1.09,0,1.31.34.6-.63,1,0,1,.07-.41.54-.18.73,0C290.94,129.51,291.53,131.35,291.87,130.59Zm-1.72-3.41c.61.21.78.92,1.23,1.3,0-.5.81-.18.74-.78-.74-.49-.84.68-1-.26C291.09,128.21,290.34,126.27,290.16,127.18Zm2.7-27.8c-.44-.13.11-.28.24-.53-1.14,0,.18-.48.24-.79h-.73c-.16.87-.71,1.14-.24,1.58,0-.16,0-.32.24-.26C292.6,99.53,292.81,99.67,292.86,99.38Zm.24,30.16c.58.08.45.91,1.23.78.06-.2.21-.3.49-.26C294.82,128,293.49,129.47,293.1,129.54Zm2.46,4.72c.38.07.16.57,0,.79.09.31,1.18.31.49,0-.16-.25,1-2,0-1.58C296.92,134.32,295.22,134,295.55,134.26ZM298,209a1.68,1.68,0,0,1,.5,1.83C299.87,210.69,298.41,208.57,298,209Zm3.68,40.9c.43,1,1.47-.22.49.26,0-.39-.09-1,.24-1,0,.15.2.3.25,0C302.24,248.65,301.69,249.2,301.68,249.9Zm-.49-18.36c-.57-.18-.66-.87-1.23-1,0,.35-.43.24-.49.53.77-.29.87-.18.49.52C300.57,231.21,301.15,232.14,301.19,231.55Zm1.22,0c0-.34.43-.24.49-.52-.75.25-.54-1.84-1.23-.79.79.31,0,.68.73,1C302.28,231.29,302.13,231.5,302.41,231.55Zm0,.27c-.37-1-2.47-.6-2-2.1.28.06.14.26,0,.26.28.86.82-.06,1,1.05.19,0,.24-.26.49-.26-.68-.29-.58-1.26.49-1.05,0,.89.56,0,1,.79-.15.45-.56.16-.49-.26-.51.39.34,1.09.24,1.31C303.22,232.37,302.44,230.89,302.41,231.81ZM306.1,209c-.16.46-1.21,1.3-.49,1.83a1.17,1.17,0,0,1,.49-1c0,.35-.46,1.44,0,.78a.66.66,0,0,1,.73-.52c-.74.46.67,1,0,.52,0-.26.2-.31.25-.52C306.26,209.87,306.22,209.29,306.1,209Zm15-57.17c0-.57.2-.84.74-.79.59.47-.41,1.41.49.79a1.87,1.87,0,0,0-1-1.84C321.23,150.47,320.41,151.46,321,151.83ZM4.29,192.74A1.09,1.09,0,0,0,4,191.17C3.64,191.58,3.94,192.39,4.29,192.74Zm6.87-32.25c0-.34.31-.37.25-.79-.19-.06-.48,0-.49-.26-.06-1.81-.23.73-1,.53C10.4,160.07,10.38,160.71,11.16,160.49Zm.49-21c.2-.5.9-1.36,0-1.58C11.92,138.61,10.91,139.18,11.65,139.51Zm4.41,49a1.28,1.28,0,0,1,.25-.79c-1,.15.12-.77-.25-1.58h-.73c.08.88,0,1.62-.49,1.85C15.59,187.82,15.31,188.73,16.06,188.55ZM20,202.44c-.2-.66.48-2.25-.49-2.09C19.7,201,19,202.61,20,202.44Zm.74-16.52h2C23,185.08,20.45,185.08,20.72,185.92Zm3.19,35.14c0,.43,1.61.53,1.23-.27C25,220.6,23.68,220.12,23.91,221.06ZM25.14,93.35a2.63,2.63,0,0,0,1.23,1.58C26.29,94,26.06,93.32,25.14,93.35Zm2,2.62H25.87C25.68,97.08,27.18,96.87,27.1,96ZM32,238.89c-.46-.49-.62,0-1.23,0C30.58,240,32.09,239.79,32,238.89ZM34,97.54c-.92.1-.46-1.26-1.23-1.31.31,1.82-.44,1.31-1.23,1.59-.17.7.49.52.49,1C34.6,98.8,32.28,98.17,34,97.54Zm3.18-15.47c.57-.08.28.76.73.79C38.44,81.91,37.7,81.13,37.15,82.07Zm3.43,165.74c.28.83-.39.64-.49,1,.29,0,.26.42.25.79.77.12,1.1-.22,1-1h-.49C40.9,248.28,40.78,247,40.58,247.81Zm3.19-21.5c.09.64-.45.57-.25,1.31C44.62,228.08,44.41,226.23,43.77,226.3Zm2-110.15c-.93-.24-1.15,0-1.71-.25A.93.93,0,0,0,45.73,116.16Zm1.72-59.52c-.56-.41-1.53-1.16-2-.27a1.07,1.07,0,0,1,1,.53c-.32,0-1.78,0-1,.26C46.31,57.18,47.19,57.24,47.44,56.64Zm5.4,159.18c0-.5.81-.19.73-.78-.48.08-.48-.36-.73-.53C53,215,52.12,215.59,52.84,215.82Zm2.94,1.31c-.81.08-1.51,0-1.71-.52C52.83,217.61,56.45,217.59,55.78,217.13ZM59.21,278c.39,0,.85,0,.74-.52H58a3.29,3.29,0,0,0,2.46,1.32C60.55,277.34,59.57,278.74,59.21,278Zm3.93-60.83c-.81.26-2.67-.58-2.7.53C61.43,217.17,62.2,217.85,63.14,217.13Zm.73-22.29H62.64C62.27,195.64,64.25,195.64,63.87,194.84Zm3.68,40.91c-.32-.36-1.47-.45-1.47.26C66.51,235.86,67.52,236.33,67.55,235.75ZM67.31,262c.1.63-.45.57-.25,1.32h.49C68.14,263.12,67.58,262.06,67.31,262Zm12-.79c-1.92,1.29-1.47-2.36-1.72-2.1C76.29,260.48,79.11,262.66,79.32,261.18ZM80.3,128c.07-.6-.06-1-.49-1.05-.06.38-.4.45-.49.79C79.65,127.78,79.78,128.07,80.3,128Zm.25-62.15c-1.21-.06-.81.37-.74,1.31C80.55,67.22,80.32,66.27,80.54,65.82ZM82,177.26c-.84-.26-.59,2-.24,2.11C81.58,178.37,82.07,178.11,82,177.26ZM83.48,301c.15,1.32-.32,3.32.25,4.2C83.57,303.93,84.05,301.93,83.48,301Zm2-245.19h-.74c0-.39.09-1-.25-1-.14.59-.38-.32-.73.26a2.37,2.37,0,0,0,1,1.31C84.71,55.94,85.39,56.23,85.44,55.85Zm.24,49.3c0-.8,1-1.79,0-2.1C85.83,103.75,85,104.69,85.69,105.15Zm1.23,199.56c.19-1-1.57-1.59-1.47-.26C86,304.44,86.17,304.91,86.92,304.71Zm1-181.21c.41-.18-.05-2.36-.25-1.83C87.8,122.22,87.35,123.39,87.9,123.5Zm-.74-15.73c.38.93-.83.15-.73.78.85.06,1.15.38,1.72-.26C87.37,108.6,87.54,107.89,87.16,107.77Zm2,127.71c-.87.46-.61-.17-1.47-.26C87.08,236.32,89.39,236.37,89.12,235.49Zm.24-160c-.51.16-1.71-.41-1.47.53C87.87,76.33,89.39,76.09,89.37,75.51Zm2.7,199c-.12.83.53,1,0,1.58.43.49.71-.32,1.22.26C93.24,275.4,92.94,274.67,92.07,274.56Zm2.45-164.95c-.12-.82.35-1,.49-1.57C94,107.49,94.08,109.47,94.51,109.61Zm.74,150c-.08.82,1.35,2.39,1.71,1C95.84,260.9,96.11,259.65,95.25,259.62Zm2-52.73c-.47-.48-.62,0-1.23,0C95.86,208.08,97.27,207.76,97.21,206.9Zm.49,57.7H96.48C96.1,265.4,98.08,265.4,97.7,264.6Zm-.25-5.25c.41,1-.77,2.61.25,2.62C98.05,261.83,97.67,258.89,97.46,259.35Zm1-12.33c-.35-.06-.41-.42-.73-.52-.23.78-.53,1.76.49,1.83C97.92,247.51,98.08,247.64,98.44,247Zm0-38.28c.1.51.09,1.13.74,1.05-.13-.83.58-1.08-.25-1.31C98.87,208.68,98.72,208.78,98.44,208.74Zm.74,36.45c.35.07.41.43.73.53.08-.35.35-.5.24-1C99.6,244.6,99.23,244.73,99.18,245.18Zm.24,25.44c-.62.7.63.86,1,1.31C100.24,271.31,100.07,270.72,99.42,270.62ZM104.57,289h-1c-.06.49.27.58.25,1C104.48,290.11,104.64,289.67,104.57,289ZM107,35.39c1.25,0,.92-2.46.49-2.35C107.86,34.2,106.28,34.67,107,35.39Zm24.52,275.09c.06-.49-.28-.58-.24-1h-.49c0,.34-.31.36-.25.79C131,310.17,131.1,310.52,131.54,310.48Zm-.24-39.59c.55-.63,0-1.59-.25-2.1-.7,0-1.34,0-1.22.79,1.11-.72.53,1.67,1,.79,0-.3,0-.75.24-.79C131.18,270,130.76,270.93,131.29,270.89Zm4.65,2.1c.53,1.58.78,4.26.73.52.15.16,1.17.62,1.23,0C137,273.62,136.66,272.31,135.95,273Zm7.11-34.35c.47.06.53-.29,1-.26.06.2,0,.52.25.52.35-1-.68-.5-.49-1.31C143.15,237.5,143,237.95,143.06,238.63Zm1.23-17.84c.15-1-1.35-.3-2-.52C142.63,221.78,143.48,220.17,144.29,220.8Zm.24,52.45c-.7-.05-1.24.07-1.47.52C143.56,273.61,144.76,274.2,144.53,273.25Zm.25-.52c.64.07.81-.37.73-1.06C144.69,271.41,144.7,272,144.78,272.73Zm.73-51.93c-.33-.08-.47-.37-1-.26v.79C145,221.27,145.76,221.58,145.51,220.8ZM183,261.18a6.14,6.14,0,0,0-.49,1.58C183.36,263.09,183.54,261.43,183,261.18Zm3.18,2.37c.38,1.27-1,2.78.49,2.89C186.49,265.68,186.57,263.26,186.2,263.55Zm7.11-82.35c-.07.7.51.68,1,.79,0-.35,0-.7,0-1.05C193.83,180.88,193.75,181.24,193.32,181.2Zm4.91,79.46c.27.06.38.29.49.52.62,0,.77-.4,1-.79C199.07,260.2,198.56,260,198.22,260.66Zm2.2,39.87c-.1.58-.56,1.43.24,1.58C200.45,301.17,201.3,300.74,200.43,300.52Zm.5-3.67a5.23,5.23,0,0,1-.25,2.1C201.51,299.22,201.26,297,200.92,296.85Zm.73,16.52c-.48.08-.48-.35-.73-.52C200.29,314,201.31,314.54,201.65,313.37Zm2-12.06c1.25-.51.34.24.49,1.31.7-.12.7-1,1-1.57C204.69,300.88,203.46,299.77,203.61,301.31Zm3.43,0c-1.64.34.37,1.37-.74,2.1,1.11.46.62-1,1.47-1.57C207.39,301.81,206.93,301.87,207,301.31Zm-.74-2.09c-.35,1.26.69,2.38,1.47,1.57C207.38,300.16,207.6,298.88,206.31,299.21Zm1.22-210.06c.1.63-.44.56-.24,1.31.56.07.92-.07,1-.53C207.71,90,208,89.18,207.53,89.16ZM212.93,215c-.15-.63.31-1.91-.25-2.09C212.21,213.84,212.13,214.39,212.93,215Zm1.22,97.56a.55.55,0,1,0,0,1Zm3.92,9.43a1.1,1.1,0,0,0,.25-1.57C217.48,320,217.16,322.21,218.08,322Zm2-215.56c-1.14-.08-1.33.86-1.71,1.58A2,2,0,0,0,220,106.46Zm4.41,72.38a1.77,1.77,0,0,0-.25-1.31c-.88-.14-1.45,1.4-.25,1.31,0-.31,0-.75.25-.79C224.24,178.36,224.17,178.8,224.45,178.84Zm5.64-55.08c1.05.09.66-1,.49-1.57C229.7,121.95,230.24,123.24,230.09,123.77Zm3.68,17.58h.73c0-.4.09-1-.24-1.06C234.16,140.71,233.49,140.52,233.77,141.34Zm0,92.57c.23.15,1.26,1.16,1.22,0C234.27,234,234.09,232.86,233.77,233.91ZM238.92,22c.43.15,1.44-.31,1.47.26-.59.16-1.78-.33-2,.26,1.05.19,1.62.1,2.21.26,0-.35,0-.7,0-1C239.7,22,239.1,21.06,238.92,22Zm3.43,262c-.5-.16-.07-1.32-1-1-.2.49-.31,1.06-.73,1.31C241.15,284.11,242.25,284.58,242.35,284Zm3.43-10.75h.74c0-.39.09-1-.24-1.05C246.17,272.61,245.5,272.42,245.78,273.25Zm2.7-81.56a2.19,2.19,0,0,0-.49-1.57C248,191,247.48,191.53,248.48,191.69Zm4.41-39.33c-.33.33-.38,1.28.24,1.31C253.47,153.33,253.51,152.38,252.89,152.36Zm3.93,1.83c.45-.19-.07-2.14-.24-1.57C256.66,153.42,255.93,154,256.82,154.19ZM274,268.26c0,.7-.1,1.5.24,1.83.61,0,1.19.05,1.23-.52C274,270.13,274.82,268.33,274,268.26Zm7.35-152.36c-.63-.64-1.34.11-1.71.53C280.17,116.24,281.52,116.9,281.33,115.9Zm-1,4.72a4.19,4.19,0,0,0,1.23-2.1C280.55,118.56,280.44,119.58,280.35,120.62Zm-.73-6.81c-.12,1.3,1.44.52,2,.27C280.67,114.25,280.53,113.62,279.62,113.81Zm4.9,4.45c-1.69.64.45-.85-.74-1.05-.35.42-1,.52-.73,1.57.19.06.48,0,.49.26C284.15,119.1,284.3,118.64,284.52,118.26Zm1.72,3.93a1,1,0,0,0-1.23,1.06C285.47,123.67,287,123.41,286.23,122.19Zm1,2.1c.1.68.76.76,1.23,1A1,1,0,0,0,287.21,124.29ZM296.53,258c-.26-1,.52-.85.74-1.31-.36.14-1.26-.31-1.23.26C296.71,256.8,295.86,258.22,296.53,258Zm1-127.45c0,.16,0,.31-.25.26,0-.31,0-.75-.24-.79.12.87-1.39,1.14-.25,1.57C296.36,130.72,298.59,131.34,297.51,130.59Zm5.15,113.82c-1.14-.41-.86,1.35,0,1C302.66,245.1,302.66,244.75,302.66,244.4Zm25.74-80.77c-.08.35-.35.5-.24,1,.37,0,.9.1,1-.26C328.68,164.39,329,163.55,328.4,163.63ZM207.59,1.45a167.44,167.44,0,0,1,33,313.12c.11-.27.09-.46-.15-.15a3.18,3.18,0,0,1-.38.4l-.65.31c.41-.52,1.22-1.09.78-1.5-.16,1.21-.81-.4-1,.26.76.81-1.37-.68-.49,0,0,.27.19.32.24.53.42.11.62-.39.73,0-.1.2-.75.64-.68.9a166.39,166.39,0,0,1-30.4,10.94l-.05,0v.05l-.41.1c-.25-.13-.7.27-1-.15a1,1,0,0,1,0,.4,166.53,166.53,0,0,1-21.56,3.77c2.38-1.05,3.67-3,1.75-6.33-2.53-4.48-7.9-1.7-13.5-14.89-1.93-4.54,4.89-4.34,1.6-8.42.34-.73.46-2.05-.18-1.53.15,0,.29,0,.24.25-.57.15-.57.8,0,.26.09.32-.15.47-.42.59-1.42-1.62,1.63-1.56.48-5.5-.43-1.49-1.09-9.39,0-11.19,2.32-3.84,1.41-13.6,2.67-19.43,1.57-7.25-1.3-10.06-.92-18.22.28-6-2.68-3.77-.52-12.95,0-.1,0-7.41,0-8.12.63-6.57-.38-21.46,2.61-25.66,1.11-1.55-.3-3.13-1.35-6.15.12-.42.27-.71-.28-.88-.88-3.06-1.22-7.48,1.29-14.4,3.94-10.82-2.47-21.54-3.51-30-.48-3.93-.75-3.69-.75-8.28v-.2a27.33,27.33,0,0,0,2.9-.07c6,.23,6.44-6.49,9.72-10,1.41-1.41,2.43-4.48,3.27-6.12,1.95-3.82-.65-15.14-2.06-19.09-1.29-3.62-4.72-21.28-8.06-22.28a11.36,11.36,0,0,1-3.12-1.55c.58-1,2.18-7.24-1.17-8.4h0s1.91-3.78,1.18-4a9.43,9.43,0,0,1-.88-.35L193.32,30.2a127.13,127.13,0,0,1,13.16,8.16c0,.1,0,.16-.17.19-.06-.92-1.09.47-1-.27.24,0,.3-.46,0-.52,0,.72-.41.53,0,1,.6,0,.75-.49,1.22,0a.48.48,0,0,0,.15-.29q4.85,3.44,9.45,7.31c14.53,2.54,29.11,5.8,44,13.91a324.61,324.61,0,0,0-20.48-34.91C232.44,14,214.76,11.69,207.59,1.45Z"/></g></g></svg>